<svg width="278" height="73" viewBox="0 0 278 73" fill="none" xmlns="http://www.w3.org/2000/svg">
<path fill-rule="evenodd" clip-rule="evenodd" d="M267.842 5.83594C267.842 7.96057 266.137 9.67913 264.033 9.67913C261.929 9.67913 260.217 7.96057 260.217 5.83594C260.217 3.71856 261.929 2 264.033 2C266.137 2 267.842 3.71856 267.842 5.83594ZM278 5.83594C278 7.96057 276.295 9.67913 274.191 9.67913C272.087 9.67913 270.382 7.96057 270.382 5.83594C270.382 3.71856 272.087 2 274.191 2C276.295 2 278 3.71856 278 5.83594ZM177.635 26.1468C178.249 25.5377 178.72 24.8198 179.062 23.986C179.405 23.1521 179.569 22.2384 179.569 21.2522C179.569 20.2588 179.412 19.3451 179.084 18.4967C178.755 17.6483 178.292 16.9159 177.7 16.2923C177.1 15.6687 176.394 15.1829 175.581 14.8348C174.761 14.4795 173.869 14.3055 172.885 14.3055C171.936 14.3055 171.066 14.4867 170.281 14.8566C169.489 15.2191 168.812 15.7122 168.241 16.3358C167.67 16.9594 167.221 17.6918 166.9 18.5402C166.572 19.3886 166.408 20.2878 166.408 21.2522C166.408 22.2094 166.572 23.1085 166.9 23.9424C167.221 24.7763 167.677 25.4942 168.262 26.1033C168.847 26.7124 169.532 27.191 170.324 27.5391C171.109 27.8944 171.965 28.0684 172.885 28.0684C173.812 28.0684 174.682 27.9017 175.496 27.5608C176.309 27.2273 177.022 26.7487 177.635 26.1468ZM271.024 23.4131V15.1176C271.024 14.494 271.516 13.9792 272.122 13.9792H275.632C276.238 13.9792 276.73 14.494 276.73 15.1176V28.199C276.73 28.8298 276.238 29.3447 275.632 29.3447H182.507C182.208 29.7145 181.901 30.077 181.559 30.4106C180.425 31.5418 179.091 32.4265 177.607 33.0428C176.123 33.6592 174.533 33.9782 172.885 33.9782C171.187 33.9782 169.568 33.6374 168.07 32.9631C166.629 32.3177 165.338 31.4113 164.246 30.2728C163.126 29.1126 162.249 27.7276 161.636 26.1613C161.036 24.6241 160.73 22.9708 160.73 21.2522C160.73 21.0629 160.742 20.8816 160.754 20.6994C160.758 20.6373 160.762 20.5752 160.765 20.5126C159.503 20.7011 158.554 21.245 157.933 22.1369C157.47 22.7895 157.149 23.5944 156.971 24.5516C156.799 25.516 156.707 26.5457 156.707 27.6479V32.8615C156.707 33.4924 156.214 34 155.608 34H152.099C151.492 34 151 33.4924 151 32.8615V27.5608C151 25.3564 151.25 23.4566 151.735 21.8468C152.227 20.237 152.919 18.765 154.017 17.6483C156.257 15.3714 158.49 14.8638 159.11 14.726C159.738 14.581 160.323 14.5157 160.865 14.5157H162.506C162.97 13.6964 163.512 12.9422 164.132 12.2606C165.217 11.0859 166.501 10.1432 167.956 9.46884C169.475 8.75822 171.137 8.39565 172.885 8.39565C174.611 8.39565 176.252 8.72921 177.757 9.38183C179.262 10.0344 180.589 10.9554 181.709 12.1156C182.85 13.3048 183.742 14.7115 184.355 16.2996C184.947 17.8441 185.254 19.5119 185.254 21.2522C185.254 21.9846 185.182 22.7097 185.068 23.4131H271.024Z" fill="white"/>
<path fill-rule="evenodd" clip-rule="evenodd" d="M165.955 69.9V47.3571H174.075C174.69 47.3571 175.183 46.8643 175.183 46.2571V43.1C175.183 42.4929 174.69 42 174.075 42H152.108C151.5 42 151 42.4929 151 43.1V46.2571C151 46.8643 151.5 47.3571 152.108 47.3571H160.229V69.9C160.229 70.5071 160.729 71 161.337 71H164.847C165.461 71 165.955 70.5071 165.955 69.9ZM191.875 59.2214H183.776L187.829 48.2571L191.875 59.2214ZM181.875 64.3786H193.777L195.95 70.2786C196.107 70.7143 196.522 71 196.994 71H200.797C201.576 71 202.112 70.2286 201.833 69.5071L191.525 42.7071C191.361 42.2786 190.953 42 190.488 42H185.413C184.948 42 184.534 42.2786 184.369 42.7071L173.983 69.5071C173.704 70.2286 174.247 71 175.026 71H178.658C179.129 71 179.544 70.7143 179.708 70.2786L181.875 64.3786ZM271.531 69.9V50.6714L263.597 70.3214C263.432 70.7357 263.039 71 262.596 71H259.422C258.986 71 258.585 70.7357 258.421 70.3214L250.493 50.8357V69.9C250.493 70.5071 250.007 71 249.407 71H246.268C245.668 71 245.182 70.5071 245.182 69.9V43.1C245.182 42.4929 245.668 42 246.268 42H251.78C252.216 42 252.609 42.2643 252.781 42.6786L261.073 62.9429L269.165 42.6857C269.33 42.2714 269.723 42 270.166 42H275.913C276.514 42 277 42.4929 277 43.1V69.9C277 70.5071 276.514 71 275.913 71H272.611C272.017 71 271.531 70.5071 271.531 69.9ZM232.079 50.6714V69.9C232.079 70.5071 232.558 71 233.158 71H236.461C237.061 71 237.547 70.5071 237.547 69.9V43.1C237.547 42.4929 237.061 42 236.461 42H230.713C230.27 42 229.877 42.2714 229.712 42.6857L221.62 62.9429L213.328 42.6786C213.156 42.2643 212.763 42 212.327 42H206.809C206.215 42 205.729 42.4929 205.729 43.1V69.9C205.729 70.5071 206.215 71 206.809 71H209.954C210.554 71 211.041 70.5071 211.041 69.9V50.8357L218.968 70.3214C219.133 70.7357 219.533 71 219.969 71H223.143C223.586 71 223.979 70.7357 224.144 70.3214L232.079 50.6714Z" fill="white"/>
<path fill-rule="evenodd" clip-rule="evenodd" d="M86.4789 15.2556L76.1134 20.8753L77.1057 24.3068C77.1199 24.3779 77.1414 24.4418 77.1556 24.5129L77.5768 26.2251L89.0417 20.0157C90.755 19.1205 95.9591 16.3995 100.457 16.3995C102.498 16.3995 104.119 16.9465 105.418 18.0619L111.093 23.7385C105.197 25.202 98.2792 31.4611 89.7413 39.1909L82.3098 45.4926L83.7518 51.3539L93.3249 43.2334C101.163 36.143 108.566 29.4363 113.042 28.8466C113.106 28.8182 113.392 28.7614 113.906 28.669C114.413 28.5696 114.684 28.5269 114.713 28.5412L114.727 28.5696C114.791 28.7543 114.848 28.939 114.891 29.1237C114.948 29.145 114.998 29.1664 115.041 29.1877C115.741 30.232 117.076 30.6512 118.261 30.2036C119.496 29.7347 120.209 28.4346 119.945 27.1416C119.931 27.0847 119.917 27.0279 119.902 26.9639C119.888 26.9284 119.874 26.8858 119.867 26.8432L119.817 26.7011C119.153 24.321 117.254 22.2181 116.319 21.3016C116.169 21.1453 116.04 21.0316 115.948 20.9464L109.194 14.1971C109.159 14.1544 109.116 14.1189 109.073 14.0834C106.767 12.0373 103.869 11.0071 100.457 11C94.617 11.0071 88.5205 14.1899 86.4789 15.2556ZM11.2221 14.0763C11.1793 14.1118 11.1436 14.1544 11.1008 14.1899L4.41889 20.8682C2.90547 22.4028 0.478295 25.2304 0.085665 27.7099C0.0642483 27.7952 0.0428316 27.8875 0.0214149 27.9728C0.0071383 28.1007 0 28.2357 0 28.3635C0 29.6281 0.863789 30.7578 2.09879 31.0349C3.3338 31.3119 4.57594 30.7365 5.12562 29.5997C5.15418 29.5429 5.20415 29.4718 5.2684 29.3937C5.28981 29.28 5.31123 29.1664 5.33979 29.0456C5.62534 28.8609 6.29638 28.7756 6.90317 28.8111C6.9817 28.8182 7.06736 28.8253 7.15303 28.8395C11.6076 29.3227 19.3103 36.3064 26.756 43.0487C26.7989 43.0842 26.8346 43.1197 26.8774 43.1481L36.6932 51.091L38.1566 45.3292L30.354 39.0133C22.2015 31.6316 15.0842 25.1878 9.19471 23.7314L14.8772 18.0619C16.1264 16.9891 17.7041 16.4918 19.8529 16.4918C25.9137 16.4918 32.6741 20.3993 38.178 23.5822L43.0324 26.2109L43.4821 24.4489L44.4887 20.8611L40.8337 18.879C34.8371 15.4119 27.3771 11.0924 19.8529 11.0924C16.3692 11.0924 13.4637 12.1012 11.2221 14.0763ZM70.5523 23.8806C70.1382 24.0511 69.5243 24.2855 68.8247 24.5413L69.3673 26.4382L70.1954 29.7916C71.4803 29.3227 72.494 28.9248 72.7225 28.8324C72.8153 28.7898 72.9081 28.7472 73.008 28.6975L75.2139 27.5039L74.6071 25.0528L73.7719 22.1399L70.5523 23.8806ZM46.2234 25.1168L45.5881 27.6034L47.8011 28.804C47.8511 28.8324 47.901 28.8538 47.9581 28.8822C48.8719 29.3013 49.7357 29.6708 50.5709 29.9905L51.4561 26.5021L51.9558 24.7331C51.4276 24.52 50.885 24.2855 50.3211 24.0227L47.0301 22.2394L46.2234 25.1168ZM64.413 25.9764C64.2059 26.0332 64.0132 26.0759 63.8347 26.1114C63.2279 26.2393 62.6354 26.3387 62.0429 26.4027C59.5229 26.694 57.0957 26.4453 54.4116 25.6212L53.9547 27.2268L53.0409 30.8288C56.7959 31.9513 60.3082 32.2 63.9489 31.5819C64.2773 31.5251 64.6057 31.4611 64.927 31.3972C65.4766 31.2835 66.0977 31.1272 66.7545 30.9354C67.0043 30.8572 67.2542 30.7791 67.5112 30.7009L66.6474 27.1771L66.1548 25.472C65.5337 25.6709 64.9341 25.8485 64.413 25.9764ZM39.2846 52.3272L39.0918 53.0377L43.6892 56.7605L44.5315 53.7055L45.2097 51.0342L40.5695 47.283L39.2846 52.3272ZM75.4709 51.2899L76.8915 57.0588C77.2056 56.8244 77.534 56.5899 77.8552 56.3484C77.9052 56.3129 77.948 56.2773 77.9909 56.2418L81.5317 53.2366L80.0897 47.3753L75.4709 51.2899ZM47.0444 54.3662L45.9022 58.5437L46.8659 59.3252C46.9587 59.4034 47.0587 59.4744 47.1586 59.5383C52.0843 62.5365 56.339 63.9929 60.144 64C60.1511 64 60.1511 63.9929 60.1511 63.9929C60.1797 63.9929 60.2082 63.9929 60.2368 63.9929C60.2368 63.9929 60.2439 63.9929 60.2511 63.9929C60.2796 63.9929 60.3082 63.9929 60.3367 63.9929C60.3439 63.9929 60.3439 63.9929 60.351 63.9929C64.4415 63.9361 69.0746 62.1954 74.4001 58.7426L73.0294 53.1656C68.1537 56.5757 64.0203 58.3945 60.7222 58.5863C60.7151 58.5863 60.7151 58.5863 60.708 58.5863C60.6865 58.5863 60.6651 58.5863 60.6437 58.5863C60.6366 58.5863 60.6223 58.5863 60.6151 58.5934C60.6009 58.5934 60.5866 58.5934 60.5652 58.5934C60.5509 58.5934 60.5366 58.5934 60.5223 58.5934C60.5081 58.5934 60.5009 58.5934 60.4866 58.5934C60.4652 58.5934 60.451 58.5934 60.4295 58.6005C60.4224 58.6005 60.4153 58.6005 60.401 58.6005C60.3796 58.6005 60.3582 58.6005 60.3367 58.6005C60.3296 58.6005 60.3225 58.6005 60.3153 58.6005C60.2939 58.6005 60.2653 58.6005 60.2439 58.6005C60.2368 58.6005 60.2368 58.6005 60.2297 58.6005C60.2082 58.6005 60.1797 58.6005 60.1511 58.6005H60.144C57.4384 58.6005 54.0689 57.3999 50.1426 55.0269L47.4299 52.8316L47.0444 54.3662Z" fill="white"/>
<path fill-rule="evenodd" clip-rule="evenodd" d="M47.3138 0C45.9754 0 44.8374 0.871257 44.4867 2.18529C44.1432 3.49217 44.7014 4.81334 45.8609 5.46322C45.911 5.49178 47.0633 6.1845 48.0724 7.72706C48.9742 9.10536 49.9189 11.4763 49.3535 14.9471L46.5766 24.8666L39.6199 52.2184L36.707 62.9091C36.1917 65.0444 34.8963 66.5298 32.971 67.194C32.2338 67.4511 31.4609 67.5725 30.6736 67.5725C28.7698 67.5725 26.773 66.8512 25.0195 65.48C19.9308 61.5023 17.5261 56.6318 12.7452 46.9337L8.07875 37.6998C5.9531 33.4006 5.04415 30.9725 5.59525 28.7872L0.320491 27.4732C-0.72444 31.6438 0.928841 35.4931 3.21194 40.1207L7.3702 48.312L7.87119 49.3189C12.8525 59.4312 15.6008 65.0016 21.67 69.7506C24.3754 71.8716 27.5316 72.9857 30.6235 73H30.7308C30.7452 73 30.7523 73 30.7595 73C32.1193 72.9929 33.4648 72.7643 34.7531 72.3144C38.4104 71.0504 41.0442 68.0795 41.9674 64.2517L44.8732 53.6038L51.8227 26.2591L54.6211 16.2682C54.6497 16.1825 54.6641 16.0897 54.6855 16.004C55.5086 11.2121 54.3277 7.69135 53.0251 5.42037H57.0831C63.9826 5.42037 64.7985 8.53404 65.7575 12.1905L69.7798 26.1949L79.0768 64.1589C80.0072 68.0653 82.6339 71.0361 86.2911 72.3144C87.6152 72.7715 88.9965 73 90.3921 73C93.5054 73 96.676 71.8788 99.4029 69.7506C105.451 65.023 107.469 60.9166 112.357 50.9972L118.154 39.5137C119.55 36.6928 120.545 34.2076 120.881 31.8366C120.881 31.8366 120.881 31.8366 120.881 31.8295C120.881 31.8223 120.881 31.8081 120.888 31.8009C120.888 31.7938 120.888 31.7795 120.888 31.7724C120.888 31.7724 120.888 31.7652 120.888 31.7581C121.125 30.0156 120.996 28.3302 120.409 26.6019C120.402 26.5877 120.395 26.5734 120.387 26.5519L115.256 28.3373C115.979 30.4012 115.463 32.7007 113.295 37.0927L108.049 47.4621L107.483 48.6048C102.724 58.2672 101.121 61.5165 96.0462 65.48C94.2999 66.8512 92.303 67.5796 90.3993 67.5796C89.6048 67.5796 88.8247 67.4511 88.0875 67.194C86.1623 66.5227 84.874 65.0373 84.3659 62.8877L75.0331 24.8023L70.9965 10.7622C70.016 6.99863 68.1909 0 57.0831 0H47.3138Z" fill="white"/>
</svg>
