<svg width="51" height="30" viewBox="0 0 51 30" fill="none" xmlns="http://www.w3.org/2000/svg">
<path fill-rule="evenodd" clip-rule="evenodd" d="M36.4243 6.14567L32.1301 8.46713L32.5412 9.88466C32.5471 9.91401 32.5559 9.94042 32.5619 9.96977L32.7364 10.6771L37.486 8.11202C38.1958 7.74222 40.3518 6.61818 42.215 6.61818C43.0609 6.61818 43.7322 6.84416 44.2705 7.30493L46.6216 9.64987C44.1788 10.2545 41.313 12.8401 37.7759 16.0332L34.6971 18.6364L35.2946 21.0576L39.2605 17.7031C42.5078 14.7741 45.5747 12.0036 47.429 11.76C47.4556 11.7483 47.5739 11.7248 47.7869 11.6867C47.9969 11.6456 48.1092 11.628 48.1211 11.6338L48.127 11.6456C48.1536 11.7219 48.1773 11.7982 48.195 11.8745C48.2187 11.8833 48.2394 11.8921 48.2571 11.9009C48.547 12.3323 49.1 12.5055 49.5909 12.3206C50.1026 12.1269 50.3983 11.5898 50.2889 11.0557C50.283 11.0322 50.2771 11.0087 50.2712 10.9823C50.2652 10.9676 50.2593 10.95 50.2564 10.9324L50.2357 10.8737C49.9606 9.89053 49.1739 9.02182 48.7865 8.64322C48.7244 8.57866 48.6712 8.5317 48.6327 8.49648L45.835 5.70838C45.8202 5.69077 45.8024 5.67609 45.7847 5.66142C44.8294 4.81618 43.6287 4.39063 42.215 4.3877C39.7958 4.39063 37.2701 5.70544 36.4243 6.14567ZM5.24679 5.65848C5.22904 5.67316 5.21426 5.69077 5.19651 5.70544L2.42833 8.4642C1.80134 9.09812 0.795806 10.2662 0.633146 11.2905C0.624273 11.3257 0.615401 11.3638 0.606528 11.399C0.600614 11.4519 0.597656 11.5076 0.597656 11.5605C0.597656 12.0829 0.955509 12.5495 1.46715 12.664C1.97879 12.7784 2.49339 12.5407 2.72111 12.0711C2.73294 12.0476 2.75365 12.0183 2.78026 11.986C2.78914 11.9391 2.79801 11.8921 2.80984 11.8422C2.92814 11.7659 3.20614 11.7307 3.45752 11.7454C3.49006 11.7483 3.52554 11.7512 3.56103 11.7571C5.40649 11.9567 8.5976 14.8416 11.6822 17.6268C11.7 17.6415 11.7148 17.6561 11.7325 17.6679L15.799 20.949L16.4053 18.5689L13.1728 15.9598C9.79537 12.9105 6.84678 10.2486 4.40687 9.64694L6.76101 7.30493C7.27857 6.86177 7.93217 6.65633 8.82236 6.65633C11.3332 6.65633 14.134 8.2705 16.4142 9.58531L18.4252 10.6712L18.6116 9.94336L19.0286 8.46126L17.5143 7.64244C15.0301 6.21023 11.9395 4.42585 8.82236 4.42585C7.37912 4.42585 6.17543 4.8426 5.24679 5.65848ZM29.8261 9.70878C29.6546 9.77922 29.4002 9.87607 29.1104 9.98172L29.3352 10.7653L29.6782 12.1506C30.2106 11.9569 30.6305 11.7925 30.7252 11.7544C30.7636 11.7368 30.8021 11.7192 30.8435 11.6986L31.7573 11.2056L31.5059 10.193L31.1599 8.98975L29.8261 9.70878ZM19.7468 10.2194L19.4836 11.2466L20.4004 11.7426C20.4211 11.7543 20.4418 11.7631 20.4654 11.7748C20.844 11.948 21.2018 12.1006 21.5479 12.2327L21.9146 10.7917L22.1216 10.0609C21.9028 9.97285 21.678 9.876 21.4443 9.76741L20.081 9.03076L19.7468 10.2194ZM27.2829 10.5746C27.1971 10.5981 27.1172 10.6157 27.0433 10.6303C26.7919 10.6832 26.5465 10.7243 26.301 10.7507C25.257 10.871 24.2515 10.7683 23.1395 10.4278L22.9502 11.0911L22.5716 12.5791C24.1272 13.0428 25.5823 13.1455 27.0906 12.8902C27.2267 12.8667 27.3627 12.8403 27.4958 12.8139C27.7235 12.7669 27.9808 12.7023 28.2529 12.6231C28.3564 12.5908 28.4599 12.5585 28.5664 12.5263L28.2085 11.0706L28.0045 10.3662C27.7472 10.4484 27.4988 10.5218 27.2829 10.5746ZM16.8724 21.4597L16.7926 21.7532L18.6972 23.2911L19.0461 22.0291L19.3271 20.9256L17.4048 19.376L16.8724 21.4597ZM31.8639 21.0312L32.4524 23.4143C32.5825 23.3174 32.7186 23.2206 32.8517 23.1208C32.8724 23.1061 32.8901 23.0914 32.9079 23.0768L34.3748 21.8353L33.7774 19.4141L31.8639 21.0312ZM20.0871 22.3019L19.6139 24.0276L20.0132 24.3504C20.0516 24.3827 20.0931 24.4121 20.1345 24.4385C22.1751 25.677 23.9378 26.2786 25.5141 26.2815C25.517 26.2815 25.517 26.2786 25.517 26.2786C25.5289 26.2786 25.5407 26.2786 25.5525 26.2786C25.5525 26.2786 25.5555 26.2786 25.5584 26.2786C25.5703 26.2786 25.5821 26.2786 25.5939 26.2786C25.5969 26.2786 25.5969 26.2786 25.5998 26.2786C27.2945 26.2551 29.2139 25.5361 31.4201 24.1098L30.8523 21.8059C28.8324 23.2146 27.12 23.966 25.7536 24.0452C25.7507 24.0452 25.7507 24.0452 25.7477 24.0452C25.7388 24.0452 25.73 24.0452 25.7211 24.0452C25.7181 24.0452 25.7122 24.0452 25.7093 24.0481C25.7034 24.0481 25.6974 24.0481 25.6886 24.0481C25.6827 24.0481 25.6767 24.0481 25.6708 24.0481C25.6649 24.0481 25.662 24.0481 25.656 24.0481C25.6472 24.0481 25.6413 24.0481 25.6324 24.0511C25.6294 24.0511 25.6265 24.0511 25.6206 24.0511C25.6117 24.0511 25.6028 24.0511 25.5939 24.0511C25.591 24.0511 25.588 24.0511 25.5851 24.0511C25.5762 24.0511 25.5644 24.0511 25.5555 24.0511C25.5525 24.0511 25.5525 24.0511 25.5496 24.0511C25.5407 24.0511 25.5289 24.0511 25.517 24.0511H25.5141C24.3932 24.0511 22.9973 23.5551 21.3707 22.5748L20.2468 21.668L20.0871 22.3019Z" fill="#169F9F"/>
<path fill-rule="evenodd" clip-rule="evenodd" d="M20.0511 0C19.4981 0 19.0279 0.358051 18.8829 0.898063C18.741 1.43514 18.9717 1.97809 19.4508 2.24516C19.4715 2.2569 19.9476 2.54158 20.3646 3.1755C20.7373 3.74193 21.1277 4.7163 20.894 6.14263L19.7465 10.2191L16.8719 21.4596L15.6682 25.8531C15.4552 26.7306 14.9199 27.341 14.1244 27.614C13.8198 27.7196 13.5004 27.7695 13.175 27.7695C12.3884 27.7695 11.5632 27.4731 10.8386 26.9096C8.73588 25.2749 7.74218 23.2733 5.76659 19.2878L3.83832 15.4931C2.95996 13.7263 2.58436 12.7284 2.81208 11.8304L0.632434 11.2904C0.200645 13.0043 0.883819 14.5862 1.82725 16.488L3.54554 19.8542L3.75256 20.268C5.81095 24.4238 6.94662 26.713 9.45455 28.6646C10.5725 29.5363 11.8767 29.9941 13.1543 30H13.1987C13.2046 30 13.2076 30 13.2105 30C13.7724 29.9971 14.3284 29.9031 14.8608 29.7183C16.3721 29.1988 17.4604 27.9779 17.8419 26.4048L19.0426 22.029L21.9143 10.7914L23.0707 6.68558C23.0825 6.65036 23.0885 6.61221 23.0973 6.57699C23.4374 4.60771 22.9495 3.16083 22.4112 2.22755H24.0881C26.9391 2.22755 27.2762 3.50714 27.6725 5.00978L29.3346 10.765L33.1764 26.3667C33.5608 27.972 34.6462 29.1929 36.1575 29.7183C36.7046 29.9061 37.2754 30 37.8521 30C39.1386 30 40.4488 29.5392 41.5756 28.6646C44.0746 26.7218 44.9086 25.0342 46.9286 20.9577L49.3241 16.2385C49.9008 15.0792 50.3119 14.0579 50.4509 13.0835C50.4509 13.0835 50.4509 13.0835 50.4509 13.0806C50.4509 13.0777 50.4509 13.0718 50.4539 13.0689C50.4539 13.0659 50.4539 13.0601 50.4539 13.0571C50.4539 13.0571 50.4539 13.0542 50.4539 13.0513C50.5515 12.3352 50.4982 11.6425 50.2557 10.9323C50.2528 10.9264 50.2498 10.9206 50.2468 10.9118L48.1263 11.6455C48.425 12.4936 48.2121 13.4387 47.316 15.2436L45.1482 19.505L44.9145 19.9746C42.9478 23.9454 42.2854 25.2808 40.1885 26.9096C39.4669 27.4731 38.6418 27.7725 37.8551 27.7725C37.5268 27.7725 37.2044 27.7196 36.8998 27.614C36.1042 27.3381 35.5719 26.7276 35.3619 25.8443L31.5054 10.1927L29.8374 4.42281C29.4322 2.87615 28.6781 0 24.0881 0H20.0511Z" fill="#169F9F"/>
</svg>
